PathFileType	4	(X/Y/Z)	C:\Users\willi\Desktop\Data_PaperCallum_v2\17_Akif\Gait01\marker_experimental_temp.trc
DataRate	CameraRate	NumFrames	NumMarkers	Units	OrigDataRate	OrigDataStartFrame	OrigNumFrames
100.000000	100.000000	4	27	mm	100.000000	135	180
Frame#	Time	C7			T10			Clav			Sternum			Right_Back			PCL_CRAN			PCL_RECHTS			PCL_LINKS			RCL_UL_CRAN			RCL_UL_POST			RCL_UL_ANT			RCL_LL_CRAN			RCL_LL_POST			RCL_LL_ANT			Right_Heel			Right_Toe			Right_M5			LCL_UL_CRAN			LCL_UL_POST			LCL_UL_ANT			LCL_LL_CRAN			LCL_LL_POST			LCL_LL_ANT			Left_Heel			Left_Toe			Left_M5			*26			
		X1	Y1	Z1	X2	Y2	Z2	X3	Y3	Z3	X4	Y4	Z4	X5	Y5	Z5	X6	Y6	Z6	X7	Y7	Z7	X8	Y8	Z8	X9	Y9	Z9	X10	Y10	Z10	X11	Y11	Z11	X12	Y12	Z12	X13	Y13	Z13	X14	Y14	Z14	X15	Y15	Z15	X16	Y16	Z16	X17	Y17	Z17	X18	Y18	Z18	X19	Y19	Z19	X20	Y20	Z20	X21	Y21	Z21	X22	Y22	Z22	X23	Y23	Z23	X24	Y24	Z24	X25	Y25	Z25	X26	Y26	Z26	X27	Y27	Z27	

136	1.35	-319.0617980957032	1403.402221679688	157.1245269775391	-286.1481323242188	1186.6748046875	162.6111907958985	-461.8773498535157	1332.626586914063	171.020004272461	-521.5382080078126	1170.660888671875	196.6089324951172	-293.1767272949219	1335.405029296875	44.50022888183596	-301.0247497558594	1016.543579101563	155.7568054199219	-295.3931274414063	958.632568359375	127.8159332275391	-290.5156250000001	954.81787109375	178.00390625	-450.2706604003907	726.2470703125	-2.53016781806943	-437.0894165039063	662.7919921875	2.240311384201076	-486.6991271972657	672.4354858398438	2.386179685592681	-432.1814575195313	369.5959777832031	36.85519790649417	-407.2576293945313	309.6649169921875	33.79119873046878	-457.43408203125	308.8239440917969	43.25485992431643	-354.16943359375	27.68143463134763	125.5999145507813	-555.9205322265625	28.91563606262203	126.3663406372071	-510.0179443359375	7.279419422149627	67.57511138916018	-419.1396484375001	744.2227172851563	348.8790893554688	-417.4476928710938	679.2317504882813	345.0009460449219	-462.2324829101563	696.1151733398438	357.9431762695313	-390.5459289550781	410.4371643066406	355.8272705078125	-330.9121704101563	384.5091247558594	347.2787475585938	-367.3651733398438	350.3039855957031	350.5369567871094	-100.8810043334961	229.4028778076172	244.9419097900391	-223.6825714111328	80.92031860351561	274.8166198730469	-174.1506042480468	97.36282348632811	322.70751953125	nan	nan	nan	
137	1.36	-332.5958251953126	1405.003295898438	156.3270874023438	-299.3283081054688	1188.283447265625	161.4779357910157	-475.1107788085938	1334.067749023438	170.6617736816407	-534.5937500000001	1172.030639648438	195.8767852783203	-307.1604614257813	1337.365600585938	43.11542892456057	-313.8094177246094	1018.126342773438	155.2751922607422	-308.0689392089844	960.0299682617188	127.7380294799805	-303.4275817871094	956.54296875	177.9572296142578	-458.7935485839844	726.4691772460938	-2.134128570556613	-444.6755065917969	663.3019409179688	2.809548139572171	-494.4095153808594	672.1473388671875	2.420397758483917	-433.5127868652344	370.0975646972656	37.08062744140628	-408.1050720214844	310.4081420898438	33.74310302734378	-458.3211364746094	309.1319885253906	43.14091110229495	-354.2508544921875	28.11462402343748	125.7954483032227	-556.0091552734375	28.83944511413571	126.3144836425782	-510.0381469726563	7.199546813964813	67.5301208496094	-436.6506347656251	747.1796264648438	348.9162902832031	-436.5329589843751	682.1245727539063	344.8590087890625	-480.9043884277344	700.1281127929688	357.8873291015626	-417.0240783691406	412.5765991210938	354.5780944824219	-358.4905090332031	384.3208618164063	345.4049072265625	-396.1526184082031	351.3455505371094	350.353515625	-134.1602020263672	218.5094146728516	242.9341735839844	-265.7427978515625	78.11478424072264	276.1804504394531	-215.1411895751953	92.5421676635742	323.4558410644531	nan	nan	nan	
138	1.37	-346.0936584472657	1406.333251953125	155.5927276611328	-312.4627685546876	1189.612426757813	160.4550933837891	-488.3140258789063	1335.224731445313	170.323226928711	-547.6481323242189	1173.109252929688	195.0867919921875	-321.0832214355469	1339.043212890625	41.80591964721682	-326.5387878417969	1019.43701171875	154.9681854248047	-320.6602783203126	961.1552124023438	127.8427658081055	-316.3054809570313	957.9999389648438	178.0985412597657	-467.1096191406251	726.5222778320313	-1.736394405364962	-452.0700683593751	663.6530151367188	3.460200309753446	-501.9200134277344	671.726318359375	2.408359527587921	-434.9447631835938	370.6083984375	37.35409164428714	-408.8952941894531	311.1392517089844	33.89410400390628	-459.228271484375	309.4301147460938	43.09000778198245	-354.3382263183594	28.60365676879881	126.0654983520508	-556.1055908203125	28.78196907043453	126.2591323852539	-510.0504760742188	7.140013694763153	67.49049377441409	-453.9947814941407	749.8858642578125	349.0661315917969	-455.3598632812501	684.75732421875	344.8162536621094	-499.3352050781251	703.83642578125	357.8374633789063	-443.176025390625	414.0278625488281	353.3031005859375	-385.955078125	383.2300415039063	343.6677856445313	-424.8889770507813	351.6636047363281	349.6692199707031	-168.4887237548828	206.2481842041016	240.9539947509766	-308.5814514160156	74.82398223876952	277.5721130371094	-256.95947265625	87.0352325439453	324.1991577148438	nan	nan	nan	
139	1.38	-359.567352294922	1407.374389648438	154.9186706542969	-325.5591125488282	1190.648559570313	159.5559387207032	-501.5027465820313	1336.078002929688	170.0048828125	-560.7090454101564	1173.87353515625	194.2481536865235	-334.9584960937501	1340.41455078125	40.57257080078127	-339.2234497070313	1020.45068359375	154.8465576171875	-333.1785583496094	961.9893188476563	128.1300201416016	-329.1583862304688	959.1593017578125	178.4264678955078	-475.2635803222657	726.4091186523438	-1.338918685913057	-459.3049011230469	663.8453369140625	4.171105861663847	-509.2620849609376	671.154052734375	2.406613349914582	-436.5296936035156	371.1013793945313	37.68688964843753	-409.7211303710938	311.8421325683594	34.25468063354495	-460.21923828125	309.6929016113281	43.12720108032229	-354.426025390625	29.13741302490232	126.4252548217774	-556.2086181640625	28.73771286010739	126.2084045410157	-510.0547790527344	7.101796627044647	67.46356201171878	-471.1741333007813	752.2902221679688	349.3107299804688	-473.9187622070313	687.096435546875	344.8937072753907	-517.5267944335938	707.1923217773438	357.7620239257813	-469.0160827636719	414.7394714355468	352.0324707031251	-413.3306884765625	381.2571411132813	342.1054382324219	-453.5694885253906	351.3018188476563	348.5282287597656	-203.9434204101562	192.8039093017578	239.0126037597656	-352.1469421386719	71.18376159667966	278.9765319824219	-299.5603332519531	80.96786499023436	324.9136962890625	nan	nan	nan	
